<?xml version="1.0" encoding="utf-8"?>
<!DOCTYPE svg PUBLIC "-//W3C//DTD SVG 1.1//EN" "http://www.w3.org/Graphics/SVG/1.1/DTD/svg11.dtd">
<svg xmlns="http://www.w3.org/2000/svg" xmlns:xlink="http://www.w3.org/1999/xlink" version="1.1" viewBox="0 0 512 512" enable-background="new 0 0 512 512" width="512px" height="512px">
  <g>
    <g>
      <path d="M489.6,12H22.4C16.2,12,12,16.2,12,22.4v373.7c0,6.2,4.2,10.4,10.4,10.4h223.2v72.7h-72.7V500h166.1v-20.8h-72.7v-72.7    h223.2c6.2,0,10.4-4.2,10.4-10.4V22.4C500,16.2,495.8,12,489.6,12z M479.2,385.8H32.8v-353h446.4V385.8z" fill="#edac1f"/>
      <path d="m84.7,344.2h342.6c6.2,0 10.4-4.2 10.4-10.4v-249.1c0-6.2-4.2-10.4-10.4-10.4h-342.6c-6.2,0-10.4,4.2-10.4,10.4v249.2c0,6.2 4.2,10.3 10.4,10.3zm10.4-249.1h321.8v228.4h-321.8v-228.4z" fill="#edac1f"/>
      <polygon points="172.9,214.5 232.1,239.4 232.1,229 185.4,209.3 232.1,189.6 232.1,179.2 172.9,204.1   " fill="#edac1f"/>
      <polygon points="238.4,255 246.7,255 272.6,162.6 264.3,162.6   " fill="#edac1f"/>
      <polygon points="279.9,189.6 326.6,209.3 279.9,229 279.9,239.4 339.1,214.5 339.1,204.1 279.9,179.2   " fill="#edac1f"/>
    </g>
  </g>
</svg>
